<svg width="40" height="40" viewBox="0 0 40 40" fill="none" xmlns="http://www.w3.org/2000/svg">
  <rect width="40" height="40" fill="#1f3a5f"/>
  <g fill="#ffffff">
    <circle cx="8" cy="10" r="0.82"/><circle cx="9.5" cy="8" r="0.82"/><circle cx="11" cy="6.8" r="0.82"/><circle cx="12.5" cy="8.2" r="0.82"/><circle cx="13.5" cy="10.2" r="0.82"/>
    <circle cx="26.5" cy="10.2" r="0.82"/><circle cx="27.5" cy="8.2" r="0.82"/><circle cx="29" cy="6.8" r="0.82"/><circle cx="30.5" cy="8" r="0.82"/><circle cx="32" cy="10" r="0.82"/>
    <circle cx="14.5" cy="8.8" r="0.82"/><circle cx="16.5" cy="7.9" r="0.82"/><circle cx="18.7" cy="7.4" r="0.82"/><circle cx="21.3" cy="7.4" r="0.82"/><circle cx="23.5" cy="7.9" r="0.82"/><circle cx="25.5" cy="8.8" r="0.82"/>
    <circle cx="13.6" cy="15.2" r="0.82"/><circle cx="14.9" cy="14.8" r="0.82"/><circle cx="16.2" cy="15.2" r="0.82"/><circle cx="23.8" cy="15.2" r="0.82"/><circle cx="25.1" cy="14.8" r="0.82"/><circle cx="26.4" cy="15.2" r="0.82"/>
    <circle cx="19.1" cy="19.2" r="0.82"/><circle cx="20.9" cy="19.2" r="0.82"/><circle cx="20" cy="20.6" r="0.82"/><circle cx="19.5" cy="19.9" r="0.82"/><circle cx="20.5" cy="19.9" r="0.82"/>
    <circle cx="20" cy="22" r="0.82"/><circle cx="18.7" cy="22.8" r="0.82"/><circle cx="17.7" cy="23.8" r="0.82"/><circle cx="21.3" cy="22.8" r="0.82"/><circle cx="22.3" cy="23.8" r="0.82"/><circle cx="18.6" cy="25" r="0.82"/><circle cx="21.4" cy="25" r="0.82"/>
    <circle cx="15.8" cy="22.2" r="0.82"/><circle cx="13.2" cy="21.2" r="0.82"/><circle cx="10.7" cy="20.4" r="0.82"/><circle cx="8.1" cy="19.6" r="0.82"/><circle cx="15.5" cy="23.4" r="0.82"/><circle cx="13" cy="23.4" r="0.82"/><circle cx="10.5" cy="23.4" r="0.82"/><circle cx="8" cy="23.4" r="0.82"/>
    <circle cx="15.8" cy="25.2" r="0.82"/><circle cx="13.2" cy="26" r="0.82"/><circle cx="10.7" cy="26.8" r="0.82"/><circle cx="8.2" cy="27.7" r="0.82"/><circle cx="24.2" cy="22.2" r="0.82"/><circle cx="26.8" cy="21.2" r="0.82"/><circle cx="29.3" cy="20.4" r="0.82"/><circle cx="31.9" cy="19.6" r="0.82"/>
    <circle cx="24.5" cy="23.4" r="0.82"/><circle cx="27" cy="23.4" r="0.82"/><circle cx="29.5" cy="23.4" r="0.82"/><circle cx="32" cy="23.4" r="0.82"/><circle cx="24.2" cy="25.2" r="0.82"/><circle cx="26.8" cy="26" r="0.82"/><circle cx="29.3" cy="26.8" r="0.82"/><circle cx="31.8" cy="27.7" r="0.82"/>
    <circle cx="18.8" cy="27.8" r="0.82"/><circle cx="20" cy="28.4" r="0.82"/><circle cx="21.2" cy="27.8" r="0.82"/>
  </g>
</svg>
